<mxfile host="app.diagrams.net" agent="Mozilla/5.0 (Windows NT 10.0; Win64; x64) AppleWebKit/537.36 (KHTML, like Gecko) Chrome/139.0.0.0 Safari/537.36" version="28.1.2">
  <diagram name="Page-1" id="jajsZOKTD2JK0x28INGY">
    <mxGraphModel dx="786" dy="1551" grid="1" gridSize="10" guides="1" tooltips="1" connect="1" arrows="1" fold="1" page="1" pageScale="1" pageWidth="850" pageHeight="1100" math="0" shadow="0">
      <root>
        <mxCell id="0" />
        <mxCell id="1" parent="0" />
        <mxCell id="2" value="Customer" style="whiteSpace=wrap;strokeWidth=2;" parent="1" vertex="1">
          <mxGeometry x="260" y="-54" width="180" height="54" as="geometry" />
        </mxCell>
        <mxCell id="3" value="Aplikasi Pembelian Tiket Pesawat" style="whiteSpace=wrap;strokeWidth=2;" parent="1" vertex="1">
          <mxGeometry x="295" y="135" width="180" height="54" as="geometry" />
        </mxCell>
        <mxCell id="5" value="Maskapai" style="whiteSpace=wrap;strokeWidth=2;" parent="1" vertex="1">
          <mxGeometry x="590" y="-54" width="180" height="54" as="geometry" />
        </mxCell>
        <mxCell id="6" value="Administrator" style="whiteSpace=wrap;strokeWidth=2;" parent="1" vertex="1">
          <mxGeometry x="25" y="261" width="180" height="54" as="geometry" />
        </mxCell>
        <mxCell id="7" value="Payment Gateway" style="whiteSpace=wrap;strokeWidth=2;" parent="1" vertex="1">
          <mxGeometry x="460" y="330" width="180" height="54" as="geometry" />
        </mxCell>
        <mxCell id="8" value="Data pencarian penerbangan,&#xa;pemesanan tiket, pembayaran, &#xa;data check-in, pembatalan tiket" style="curved=1;startArrow=none;endArrow=block;exitX=0;exitY=0.5;entryX=0;entryY=0.5;exitDx=0;exitDy=0;entryDx=0;entryDy=0;" parent="1" source="2" target="3" edge="1">
          <mxGeometry x="-0.2717" y="-12" relative="1" as="geometry">
            <Array as="points">
              <mxPoint x="80" y="40" />
              <mxPoint x="90" y="106" />
            </Array>
            <mxPoint x="210" y="-27" as="sourcePoint" />
            <mxPoint x="245" y="162" as="targetPoint" />
            <mxPoint as="offset" />
          </mxGeometry>
        </mxCell>
        <mxCell id="9" value="Opsi penerbangan, kode pemesanan, &#xa;notifikasi pembayaran, notifikasi pembatalan, &#xa;boarding pass" style="curved=1;startArrow=none;endArrow=block;entryX=0.25;entryY=1;entryDx=0;entryDy=0;exitX=0.143;exitY=0.006;exitDx=0;exitDy=0;exitPerimeter=0;" parent="1" source="3" target="2" edge="1">
          <mxGeometry x="0.0467" y="-2" relative="1" as="geometry">
            <Array as="points">
              <mxPoint x="330" y="106" />
              <mxPoint x="240" y="50" />
            </Array>
            <mxPoint x="330" y="130" as="sourcePoint" />
            <mxPoint x="386.4117647058822" y="143" as="targetPoint" />
            <mxPoint as="offset" />
          </mxGeometry>
        </mxCell>
        <mxCell id="10" value="Status penerbangan, &#xa;penjadwalan ulang" style="curved=1;startArrow=none;endArrow=block;exitX=0;exitY=0.5;entryX=0.876;entryY=-0.006;entryDx=0;entryDy=0;entryPerimeter=0;exitDx=0;exitDy=0;" parent="1" source="5" target="3" edge="1">
          <mxGeometry x="-0.0892" y="-6" relative="1" as="geometry">
            <Array as="points">
              <mxPoint x="510" y="60" />
            </Array>
            <mxPoint x="440.0000000000001" y="-30" as="sourcePoint" />
            <mxPoint x="454.2470588235295" y="105" as="targetPoint" />
            <mxPoint as="offset" />
          </mxGeometry>
        </mxCell>
        <mxCell id="12" value="Data penerbangan &#xa;yang dibatalkan, &#xa;kode pemesanan" style="curved=1;startArrow=none;endArrow=block;entryX=0.25;entryY=1;entryDx=0;entryDy=0;exitX=1;exitY=0.25;exitDx=0;exitDy=0;" parent="1" source="3" target="5" edge="1">
          <mxGeometry x="-0.0355" y="-14" relative="1" as="geometry">
            <Array as="points">
              <mxPoint x="608" y="98" />
            </Array>
            <mxPoint x="550" y="170" as="sourcePoint" />
            <mxPoint as="offset" />
          </mxGeometry>
        </mxCell>
        <mxCell id="13" value="Permintaan laporan, &#xa;data transaksi" style="curved=1;startArrow=none;endArrow=block;entryX=0;entryY=0.75;entryDx=0;entryDy=0;" parent="1" target="3" edge="1">
          <mxGeometry x="0.0009" y="-8" relative="1" as="geometry">
            <Array as="points">
              <mxPoint x="80" y="170" />
            </Array>
            <mxPoint x="110" y="260" as="sourcePoint" />
            <mxPoint x="40" y="190" as="targetPoint" />
            <mxPoint as="offset" />
          </mxGeometry>
        </mxCell>
        <mxCell id="14" value="Validasi pembayaran" style="curved=1;startArrow=none;endArrow=block;exitX=0;exitY=0;exitDx=0;exitDy=0;entryX=0.394;entryY=1.031;entryDx=0;entryDy=0;entryPerimeter=0;" parent="1" source="7" target="3" edge="1">
          <mxGeometry x="-0.2604" y="-2" relative="1" as="geometry">
            <Array as="points" />
            <mxPoint x="430" y="270" as="targetPoint" />
            <mxPoint as="offset" />
          </mxGeometry>
        </mxCell>
        <mxCell id="17" value="Laporan transaksi, &#xa;laporan pembatalan, &#xa;laporan penumpang" style="curved=1;startArrow=none;endArrow=block;entryX=1;entryY=0.25;entryDx=0;entryDy=0;exitX=0.106;exitY=1.006;exitDx=0;exitDy=0;exitPerimeter=0;" parent="1" source="3" target="6" edge="1">
          <mxGeometry x="-0.0323" y="-7" relative="1" as="geometry">
            <Array as="points">
              <mxPoint x="260" y="240" />
            </Array>
            <mxPoint x="150" y="210" as="sourcePoint" />
            <mxPoint as="offset" />
          </mxGeometry>
        </mxCell>
        <mxCell id="18" value="Data transaksi pembayaran, &#xa;status pembayaran" style="curved=1;startArrow=none;endArrow=block;exitX=0.813;exitY=0.994;exitDx=0;exitDy=0;exitPerimeter=0;entryX=0.833;entryY=-0.037;entryDx=0;entryDy=0;entryPerimeter=0;" parent="1" source="3" target="7" edge="1">
          <mxGeometry x="0.1101" y="6" relative="1" as="geometry">
            <Array as="points">
              <mxPoint x="490" y="225" />
            </Array>
            <mxPoint x="420" y="250" as="targetPoint" />
            <mxPoint as="offset" />
          </mxGeometry>
        </mxCell>
        <mxCell id="81Y-lIfYAI2lc5eVE7SC-18" value="Data Flow 1" style="text;html=1;align=center;verticalAlign=middle;resizable=0;points=[];autosize=1;strokeColor=none;fillColor=none;" vertex="1" parent="1">
          <mxGeometry x="60" y="-20" width="90" height="30" as="geometry" />
        </mxCell>
        <mxCell id="81Y-lIfYAI2lc5eVE7SC-19" value="Data Flow 2" style="text;html=1;align=center;verticalAlign=middle;resizable=0;points=[];autosize=1;strokeColor=none;fillColor=none;" vertex="1" parent="1">
          <mxGeometry x="260" y="20" width="90" height="30" as="geometry" />
        </mxCell>
        <mxCell id="81Y-lIfYAI2lc5eVE7SC-20" value="Data Flow 3" style="text;html=1;align=center;verticalAlign=middle;resizable=0;points=[];autosize=1;strokeColor=none;fillColor=none;" vertex="1" parent="1">
          <mxGeometry x="460" width="90" height="30" as="geometry" />
        </mxCell>
        <mxCell id="81Y-lIfYAI2lc5eVE7SC-21" value="Data Flow 5" style="text;html=1;align=center;verticalAlign=middle;resizable=0;points=[];autosize=1;strokeColor=none;fillColor=none;" vertex="1" parent="1">
          <mxGeometry x="580" y="70" width="90" height="30" as="geometry" />
        </mxCell>
        <mxCell id="81Y-lIfYAI2lc5eVE7SC-23" value="Output Flow 1" style="text;html=1;align=center;verticalAlign=middle;resizable=0;points=[];autosize=1;strokeColor=none;fillColor=none;" vertex="1" parent="1">
          <mxGeometry x="90" y="147" width="100" height="30" as="geometry" />
        </mxCell>
        <mxCell id="81Y-lIfYAI2lc5eVE7SC-26" value="Response Flow 1" style="text;html=1;align=center;verticalAlign=middle;resizable=0;points=[];autosize=1;strokeColor=none;fillColor=none;" vertex="1" parent="1">
          <mxGeometry x="180" y="189" width="120" height="30" as="geometry" />
        </mxCell>
        <mxCell id="81Y-lIfYAI2lc5eVE7SC-27" value="Output Flow 2" style="text;html=1;align=center;verticalAlign=middle;resizable=0;points=[];autosize=1;strokeColor=none;fillColor=none;" vertex="1" parent="1">
          <mxGeometry x="325" y="250" width="100" height="30" as="geometry" />
        </mxCell>
        <mxCell id="81Y-lIfYAI2lc5eVE7SC-28" value="Response Flow 2" style="text;html=1;align=center;verticalAlign=middle;resizable=0;points=[];autosize=1;strokeColor=none;fillColor=none;" vertex="1" parent="1">
          <mxGeometry x="500" y="220" width="120" height="30" as="geometry" />
        </mxCell>
        <mxCell id="81Y-lIfYAI2lc5eVE7SC-30" value="" style="endArrow=block;html=1;rounded=0;exitX=0.598;exitY=-0.019;exitDx=0;exitDy=0;entryX=0.815;entryY=0.951;entryDx=0;entryDy=0;entryPerimeter=0;exitPerimeter=0;endFill=1;" edge="1" parent="1" source="3" target="2">
          <mxGeometry width="50" height="50" relative="1" as="geometry">
            <mxPoint x="350" y="200" as="sourcePoint" />
            <mxPoint x="470" y="-20" as="targetPoint" />
          </mxGeometry>
        </mxCell>
        <mxCell id="81Y-lIfYAI2lc5eVE7SC-31" value="Notifikasi gagal pembayaran,&lt;div&gt;kursi habis&lt;/div&gt;" style="edgeLabel;html=1;align=center;verticalAlign=middle;resizable=0;points=[];" vertex="1" connectable="0" parent="81Y-lIfYAI2lc5eVE7SC-30">
          <mxGeometry x="-0.0444" y="1" relative="1" as="geometry">
            <mxPoint y="21" as="offset" />
          </mxGeometry>
        </mxCell>
        <mxCell id="81Y-lIfYAI2lc5eVE7SC-32" value="Feedback&lt;div&gt;Loop&lt;/div&gt;" style="text;html=1;align=center;verticalAlign=middle;resizable=0;points=[];autosize=1;strokeColor=none;fillColor=none;" vertex="1" parent="1">
          <mxGeometry x="390" y="45" width="80" height="40" as="geometry" />
        </mxCell>
      </root>
    </mxGraphModel>
  </diagram>
</mxfile>
